<svg width="123" height="112" viewBox="0 0 123 112" fill="none" xmlns="http://www.w3.org/2000/svg">
<path d="M22.803 49.0956C21.6662 31.655 37.1051 17.7225 54.3379 20.6375L83.017 25.4887C101.922 28.6865 111.605 49.9802 101.589 66.3299L96.8903 74.0006C91.9685 82.0348 83.2239 86.9328 73.8019 86.9328H50.6381C36.3679 86.9328 24.5472 75.8575 23.6191 61.6175L22.803 49.0956Z" fill="#D9D9D9"/>
<path d="M57.2767 12.5854C73.531 6.1616 91.5226 16.5913 94.0258 33.8887L98.1916 62.6752C100.938 81.6512 83.6332 97.391 65.0016 92.864L56.2603 90.7402C47.1047 88.5156 39.7638 81.6915 36.878 72.7223L29.7833 50.6717C25.4126 37.0874 32.3352 22.4426 45.6066 17.1976L57.2767 12.5854Z" fill="#D9D9D9"/>
<path d="M105.825 49.8305C111.044 66.5107 99.3278 83.6923 81.8938 84.9251L52.8798 86.9767C33.7539 88.3291 19.3204 69.9209 25.1964 51.6698L27.9532 43.1071C30.8407 34.1384 38.1829 27.3157 47.339 25.0929L69.8489 19.6282C83.7163 16.2616 97.8162 24.2356 102.078 37.8547L105.825 49.8305Z" fill="#D9D9D9"/>
</svg>
